<?xml version="1.0" encoding="utf-8"?>
<!-- Generator: Adobe Illustrator 16.0.0, SVG Export Plug-In . SVG Version: 6.00 Build 0)  -->
<!DOCTYPE svg PUBLIC "-//W3C//DTD SVG 1.1//EN" "http://www.w3.org/Graphics/SVG/1.1/DTD/svg11.dtd">
<svg version="1.1" id="Layer_1" xmlns="http://www.w3.org/2000/svg" xmlns:xlink="http://www.w3.org/1999/xlink" x="0px" y="0px"
	 width="873px" height="480px" viewBox="0 0 873 480" enable-background="new 0 0 873 480" xml:space="preserve">
<path fill="#FFFFFF" d="M263.492,275.266c4.455-2.64,16.179-7.422,16.807-15.395c3.313,13.789-6.29,17.096-9.419,20.152
	c-3.128,3.057-4.742,9.167,2.557,9.738c7.299,0.571,14.614-3.064,18.204-14.471c3.59-11.404,11.696-16.822,19.287-17.965
	c10.018-1.507,14.746-5.777,16.583-11.997c-1.012,15.646-7.407,18.574-14.569,21.524c-5.33,2.197-9.365,11.022-1.179,16.755
	c0,0,6.491,4.106,13.557-9.335c4.885-9.292,13.665,1.014,18.764-13.014c1.067,14.715-6.992,10.758-9.542,17.727
	c-1.553,4.244,4.537,9.769,11.419,12.679c10.533-11.794,16.521-27.571,15.461-44.53c-2.119-33.888-31.568-59.658-65.777-57.559
	c-34.208,2.098-60.223,31.27-58.105,65.156c0.888,14.197,6.585,26.957,15.407,36.852
	C255.284,284.891,258.244,278.412,263.492,275.266"/>
<path fill="#FFFFFF" d="M385.969,246.879c-0.029,0.141-0.05,0.267-0.063,0.377c-0.015,0.113-0.021,0.197-0.021,0.254
	c0,0.505,0.247,0.918,0.743,1.24c0.494,0.323,1.068,0.584,1.72,0.778c0.65,0.197,1.302,0.33,1.954,0.4
	c0.65,0.069,1.131,0.104,1.444,0.104c1.217,0,2.016-0.266,2.399-0.798c0.382-0.53,0.574-1.328,0.574-2.392v-12.927
	c0-0.196-0.064-0.356-0.192-0.483c-0.127-0.125-0.46-0.216-0.998-0.272v-0.504h8.75v0.505c-0.539,0.056-0.871,0.147-0.998,0.273
	c-0.128,0.126-0.192,0.288-0.192,0.484v14.01c0,1.486-0.248,2.693-0.743,3.617c-0.496,0.927-1.175,1.643-2.039,2.146
	c-0.864,0.505-1.876,0.835-3.037,0.989c-1.161,0.153-2.406,0.231-3.737,0.231c-1.019,0-1.954-0.057-2.803-0.17
	c-0.849-0.113-1.593-0.255-2.23-0.424c-0.637-0.17-1.155-0.324-1.55-0.468c-0.397-0.142-0.652-0.212-0.765-0.212
	c-0.227,0-0.389,0.043-0.488,0.128c-0.1,0.085-0.262,0.228-0.488,0.424l-0.637-0.381l2.887-7.103L385.969,246.879z"/>
<path fill="#FFFFFF" d="M434.564,233.919c0-0.196-0.063-0.358-0.19-0.484c-0.129-0.126-0.461-0.217-0.999-0.273v-0.505h8.749v0.505
	c-0.537,0.056-0.87,0.147-0.998,0.273c-0.127,0.126-0.191,0.288-0.191,0.484v11.276c0,1.852-0.304,3.408-0.913,4.669
	c-0.608,1.263-1.443,2.273-2.506,3.03c-1.061,0.757-2.307,1.283-3.737,1.577c-1.431,0.295-2.953,0.442-4.567,0.442
	c-1.613,0-3.135-0.147-4.565-0.442c-1.43-0.294-2.676-0.82-3.738-1.577c-1.061-0.757-1.897-1.768-2.505-3.03
	c-0.61-1.261-0.914-2.817-0.914-4.669v-11.276c0-0.196-0.063-0.358-0.191-0.484c-0.127-0.126-0.461-0.217-0.997-0.273v-0.505h8.748
	v0.505c-0.538,0.056-0.87,0.147-0.998,0.273c-0.127,0.126-0.191,0.288-0.191,0.484v11.276c0,1.627,0.467,2.791,1.402,3.492
	c0.935,0.701,2.251,1.051,3.949,1.051c1.7,0,3.017-0.35,3.951-1.051s1.401-1.865,1.401-3.492V233.919z"/>
<path fill="#FFFFFF" d="M456.735,233.919c0-0.196-0.063-0.358-0.191-0.484s-0.46-0.217-0.997-0.273v-0.505h10.235v0.505
	c-0.482,0.028-0.801,0.091-0.956,0.19c-0.156,0.098-0.233,0.216-0.233,0.357c0,0.057,0.184,0.309,0.552,0.757
	c0.368,0.449,0.85,1.01,1.445,1.683c0.593,0.673,1.266,1.424,2.017,2.25c0.749,0.829,1.507,1.656,2.272,2.483
	c0.764,0.829,1.5,1.614,2.209,2.356c0.707,0.744,1.316,1.383,1.825,1.914v-11.233c0-0.477-0.298-0.729-0.893-0.757v-0.505h7.773
	v0.505c-0.537,0.056-0.871,0.147-0.997,0.273c-0.129,0.126-0.192,0.288-0.192,0.484v19.606c0,0.197,0.063,0.358,0.192,0.484
	c0.126,0.126,0.46,0.217,0.997,0.272v0.505h-8.07v-0.505c0.396,0,0.658-0.042,0.786-0.126c0.127-0.084,0.191-0.195,0.191-0.337
	c0-0.084-0.042-0.188-0.128-0.315c-0.085-0.127-0.27-0.342-0.553-0.651c-0.282-0.31-0.699-0.75-1.252-1.326
	c-0.552-0.573-1.281-1.346-2.188-2.313c-0.906-0.967-2.024-2.172-3.355-3.618c-1.331-1.444-2.931-3.204-4.799-5.28v13.211
	c0,0.197,0.063,0.358,0.19,0.484c0.128,0.126,0.46,0.217,0.998,0.272v0.505h-8.068v-0.505c0.537-0.056,0.869-0.146,0.997-0.272
	s0.191-0.287,0.191-0.484V233.919z"/>
<path fill="#FFFFFF" d="M511.737,254.283c0.255,0,0.452-0.021,0.594-0.063c0.143-0.042,0.213-0.203,0.213-0.483
	c0-0.084-0.127-0.336-0.382-0.758c-0.255-0.421-0.581-0.939-0.978-1.557s-0.835-1.276-1.316-1.977
	c-0.482-0.701-0.934-1.375-1.36-2.021c-0.423-0.644-0.806-1.205-1.146-1.683s-0.566-0.799-0.68-0.967l-4.162,3.701v5.049
	c0,0.196,0.064,0.358,0.191,0.484c0.128,0.126,0.459,0.217,0.998,0.273v0.504h-8.75v-0.504c0.538-0.057,0.871-0.147,0.998-0.273
	c0.128-0.126,0.191-0.288,0.191-0.484V233.92c0-0.197-0.063-0.358-0.191-0.484c-0.127-0.127-0.46-0.217-0.998-0.274v-0.504h8.75
	v0.504c-0.539,0.057-0.87,0.147-0.998,0.274c-0.127,0.126-0.191,0.287-0.191,0.484v7.572h0.297c0.85-0.813,1.764-1.654,2.74-2.523
	s1.875-1.676,2.696-2.419s1.508-1.375,2.061-1.894c0.552-0.519,0.828-0.834,0.828-0.946c0-0.253-0.071-0.401-0.212-0.442
	c-0.143-0.042-0.327-0.077-0.553-0.106v-0.504h10.788v0.504c-0.284,0.029-0.517,0.071-0.701,0.127
	c-0.184,0.056-0.354,0.14-0.509,0.252c-0.155,0.113-0.326,0.246-0.51,0.4c-0.186,0.155-0.404,0.343-0.659,0.568l-7.348,6.269
	l8.665,12.832c0.226,0.338,0.438,0.533,0.637,0.59c0.198,0.056,0.438,0.084,0.722,0.084v0.504h-9.726V254.283z"/>
<path fill="#FFFFFF" d="M532.862,254.283c0.538-0.057,0.871-0.147,0.998-0.273c0.128-0.126,0.191-0.288,0.191-0.484V233.92
	c0-0.197-0.063-0.358-0.191-0.484c-0.127-0.127-0.46-0.217-0.998-0.274v-0.504h8.75v0.504c-0.539,0.057-0.871,0.147-0.999,0.274
	c-0.127,0.126-0.19,0.287-0.19,0.484v19.605c0,0.196,0.063,0.358,0.19,0.484c0.128,0.126,0.46,0.217,0.999,0.273v0.504h-8.75
	V254.283z"/>
<path fill="#FFFFFF" d="M573.946,240.525c0.027-0.084,0.049-0.175,0.063-0.273c0.014-0.098,0.021-0.217,0.021-0.358
	c0-0.224-0.19-0.448-0.572-0.673c-0.383-0.224-0.893-0.428-1.529-0.611c-0.638-0.181-1.367-0.336-2.188-0.462
	c-0.821-0.126-1.685-0.189-2.591-0.189c-0.851,0-1.741,0.098-2.676,0.294c-0.934,0.197-1.791,0.519-2.569,0.968
	c-0.779,0.449-1.416,1.045-1.911,1.788c-0.496,0.744-0.744,1.648-0.744,2.713c0,1.067,0.248,1.972,0.744,2.716
	c0.495,0.742,1.132,1.338,1.911,1.787c0.778,0.448,1.636,0.771,2.569,0.967c0.935,0.196,1.825,0.295,2.676,0.295
	c0.367,0,0.948-0.063,1.741-0.189c0.793-0.126,1.585-0.301,2.379-0.525c0.793-0.225,1.492-0.477,2.102-0.758
	s0.914-0.574,0.914-0.883c0-0.141-0.029-0.252-0.085-0.337c-0.057-0.084-0.114-0.183-0.171-0.295l0.468-0.294l4.375,6.605
	l-0.51,0.295c-0.057-0.141-0.135-0.232-0.233-0.273c-0.101-0.043-0.221-0.064-0.361-0.064c-0.198,0-0.595,0.12-1.189,0.358
	s-1.366,0.491-2.314,0.757c-0.949,0.268-2.061,0.505-3.334,0.715c-1.274,0.211-2.704,0.316-4.29,0.316
	c-1.699,0-3.384-0.217-5.054-0.652c-1.672-0.435-3.172-1.121-4.502-2.061c-1.332-0.94-2.407-2.118-3.229-3.535
	c-0.821-1.416-1.231-3.064-1.231-4.944c0-1.878,0.41-3.527,1.231-4.943s1.896-2.594,3.229-3.534c1.33-0.94,2.83-1.648,4.502-2.124
	c1.67-0.477,3.354-0.716,5.054-0.716s3.164,0.091,4.396,0.273c1.231,0.183,2.272,0.387,3.121,0.611
	c0.82,0.225,1.459,0.413,1.911,0.568c0.453,0.154,0.793,0.231,1.02,0.231c0.255,0,0.467-0.111,0.638-0.336l0.467,0.126l-3.823,6.941
	L573.946,240.525z"/>
<path fill="#FFFFFF" d="M614.611,253.525c0,0.196,0.063,0.357,0.189,0.484c0.129,0.126,0.462,0.217,0.998,0.273v0.505h-8.748v-0.505
	c0.538-0.057,0.871-0.147,0.998-0.273c0.127-0.127,0.191-0.288,0.191-0.484v-7.783h-11.043v7.783c0,0.196,0.064,0.357,0.191,0.484
	c0.128,0.126,0.46,0.217,0.998,0.273v0.505h-8.749v-0.505c0.536-0.057,0.87-0.147,0.998-0.273c0.127-0.127,0.191-0.288,0.191-0.484
	V233.92c0-0.197-0.064-0.358-0.191-0.484c-0.128-0.127-0.462-0.217-0.998-0.274v-0.504h8.749v0.504
	c-0.538,0.057-0.87,0.147-0.998,0.274c-0.127,0.126-0.191,0.287-0.191,0.484v6.689h11.043v-6.689c0-0.197-0.064-0.358-0.191-0.484
	c-0.127-0.127-0.46-0.217-0.998-0.274v-0.504h8.748v0.504c-0.536,0.057-0.869,0.147-0.998,0.274
	c-0.127,0.126-0.189,0.287-0.189,0.484V253.525z"/>
<path fill="#FFFFFF" d="M628.67,254.283c0.538-0.057,0.87-0.147,0.998-0.273c0.127-0.126,0.191-0.288,0.191-0.484V233.92
	c0-0.197-0.064-0.358-0.191-0.484c-0.128-0.127-0.46-0.217-0.998-0.274v-0.504h8.75v0.504c-0.539,0.057-0.872,0.147-0.999,0.274
	c-0.128,0.126-0.19,0.287-0.19,0.484v19.605c0,0.196,0.063,0.358,0.19,0.484c0.127,0.126,0.46,0.217,0.999,0.273v0.504h-8.75
	V254.283z"/>
<path fill="#FFFFFF" d="M475.125,269.406h3.736c1.054,0,1.88,0.308,2.419,0.83c0.443,0.451,0.694,1.068,0.694,1.792v0.022
	c0,1.365-0.824,2.184-2,2.516l2.264,3.144h-1.736l-2.061-2.896h-1.844v2.896h-1.473V269.406z M478.754,273.521
	c1.054,0,1.725-0.545,1.725-1.387v-0.025c0-0.889-0.647-1.375-1.736-1.375h-2.145v2.787H478.754z"/>
<path fill="#FFFFFF" d="M487.177,273.582v-0.023c0-2.338,1.82-4.295,4.396-4.295c2.574,0,4.371,1.934,4.371,4.271v0.023
	c0,2.336-1.821,4.294-4.396,4.294C488.973,277.853,487.177,275.918,487.177,273.582 M494.397,273.582v-0.023
	c0-1.614-1.185-2.955-2.85-2.955s-2.826,1.317-2.826,2.932v0.023c0,1.613,1.186,2.953,2.851,2.953
	C493.236,276.512,494.397,275.195,494.397,273.582"/>
<path fill="#FFFFFF" d="M501.668,269.406h3.76c0.958,0,1.713,0.261,2.192,0.734c0.371,0.368,0.563,0.819,0.563,1.377v0.024
	c0,0.996-0.574,1.529-1.197,1.851c0.982,0.332,1.665,0.889,1.665,2.017v0.022c0,1.483-1.234,2.278-3.103,2.278h-3.88V269.406z
	 M505.129,272.905c0.946,0,1.58-0.367,1.58-1.126v-0.024c0-0.651-0.526-1.056-1.473-1.056h-2.119v2.206H505.129z M505.56,276.417
	c1.007,0,1.617-0.392,1.617-1.139v-0.024c0-0.699-0.563-1.115-1.725-1.115h-2.335v2.278H505.56z"/>
<path fill="#FFFFFF" d="M517.398,269.346h1.365l3.688,8.364h-1.558l-0.85-2.005h-3.964l-0.862,2.005h-1.509L517.398,269.346z
	 M519.506,274.412l-1.449-3.322l-1.437,3.322H519.506z"/>
<polygon fill="#FFFFFF" points="529.17,270.758 526.512,270.758 526.512,269.406 533.313,269.406 533.313,270.758 530.655,270.758 
	530.655,277.71 529.17,277.71 "/>
<path fill="#FFFFFF" d="M541.245,269.346h1.365l3.688,8.364h-1.557l-0.851-2.005h-3.964l-0.862,2.005h-1.509L541.245,269.346z
	 M543.353,274.412l-1.448-3.322l-1.438,3.322H543.353z"/>
<rect x="559.146" y="269.406" fill="#FFFFFF" width="1.473" height="8.304"/>
<polygon fill="#FFFFFF" points="567.27,276.631 572.216,270.699 567.426,270.699 567.426,269.406 574.132,269.406 574.132,270.484 
	569.186,276.417 574.132,276.417 574.132,277.71 567.27,277.71 "/>
<path fill="#FFFFFF" d="M582.766,269.346h1.365l3.688,8.364h-1.557l-0.851-2.005h-3.964l-0.862,2.005h-1.509L582.766,269.346z
	 M584.873,274.412l-1.448-3.322l-1.438,3.322H584.873z"/>
<polygon fill="#FFFFFF" points="592.957,269.406 594.431,269.406 594.431,273.582 598.418,269.406 600.227,269.406 596.741,272.977 
	600.382,277.71 598.598,277.71 595.735,273.973 594.431,275.302 594.431,277.71 592.957,277.71 "/>
<path fill="#FFFFFF" d="M608.549,269.346h1.365l3.688,8.364h-1.557l-0.851-2.005h-3.964l-0.862,2.005h-1.509L608.549,269.346z
	 M610.656,274.412l-1.449-3.322l-1.437,3.322H610.656z"/>
<polygon fill="#FFFFFF" points="619.725,274.436 616.395,269.406 618.131,269.406 620.479,273.083 622.85,269.406 624.537,269.406 
	621.209,274.4 621.209,277.71 619.725,277.71 "/>
<path fill="#FFFFFF" d="M631.673,269.346h1.365l3.688,8.364h-1.557l-0.851-2.005h-3.964l-0.862,2.005h-1.509L631.673,269.346z
	 M633.78,274.412l-1.449-3.322l-1.437,3.322H633.78z"/>
</svg>
